<?xml version="1.0" encoding="utf-8"?>
<!-- Generator: Adobe Illustrator 22.1.0, SVG Export Plug-In . SVG Version: 6.00 Build 0)  -->
<svg version="1.1" id="Layer_1" xmlns="http://www.w3.org/2000/svg" xmlns:xlink="http://www.w3.org/1999/xlink" x="0px" y="0px"
	 viewBox="0 0 100 100" style="enable-background:new 0 0 100 100;" xml:space="preserve">
<style type="text/css">
	.st0{fill:#141414;}
</style>
<rect width="100" height="100"/>
<path class="st0" d="M45.6,59.3c0.8-7.4,5.2-12,7-13.6h-5.2c-0.3,0-0.3,0.2-0.4,0.4l-0.6,2.4h-4.1v-6.8l16.3,0.1v3.5
	c-3.8,3.5-5.5,8.5-5.7,14H45.6z M37.8,38.2c0.1-0.1,0.2-0.2,0.4-0.4L0.4,0H0v0.4L37.8,38.2z M61.8,37.8c0.1,0.1,0.2,0.2,0.4,0.4
	L100,0.4V0h-0.4L61.8,37.8z M38.2,62.2c-0.1-0.1-0.2-0.2-0.4-0.4L0,99.6v0.4h0.4L38.2,62.2z M62.2,61.8c-0.1,0.1-0.2,0.2-0.4,0.4
	L99.6,100h0.4v-0.4L62.2,61.8z"/>
</svg>
