<svg width="1416" height="394" viewBox="0 0 1416 394" fill="none" xmlns="http://www.w3.org/2000/svg">
<path fill-rule="evenodd" clip-rule="evenodd" d="M87.3999 238.21V89.0102L139.9 238.21H246.8V35.7102H179.9L179.8 181.11L128.2 35.7102H20.7V238.21H87.3999ZM418.4 35.7102V81.3102H332.7V114.71H411.5V158.21H332.7V192.61H418.4V238.21H265.5V35.7102H418.4ZM636.5 238.21V82.1102H636L607.8 237.51H530.8L502.6 82.1102H502.1V238.21H435.8V35.7102H543.5L569.3 188.71L595.1 35.7102H702.8V238.21H636.5ZM874.5 35.7102V81.3102H788.9V114.71H867.7V158.21H788.9V192.61H874.6V238.21H721.7V35.7102H874.5ZM1083.7 169.91C1083.7 188.51 1077.5 204.81 1065.2 218.61C1052.9 232.51 1027 239.41 987.7 239.31C947.3 239.31 920.9 232.41 908.4 218.41C895.8 204.41 889.6 187.31 889.6 167.01H956.8C956.8 179.81 959.8 187.61 965.8 190.21C971.8 192.81 979 194.11 987.3 194.11C995.5 194.11 1002.7 193.21 1008.7 191.31C1014.7 189.41 1017.7 185.61 1017.7 179.91C1017.7 173.41 1013.1 169.11 1003.9 167.01C994.7 164.91 982 162.61 965.8 160.01C936 153.81 915.8 146.91 905.4 139.31C894.9 131.71 889.7 119.11 889.7 101.51C889.7 83.5102 896 67.8102 908.7 54.2102C921.4 40.7102 947.3 33.9102 986.5 33.9102C1025.5 33.9102 1051.5 41.1102 1064.3 55.5102C1077.1 69.9102 1083.5 86.6102 1083.5 105.71H1016.3C1016.3 93.1102 1013.1 85.5102 1006.8 83.0102C1000.5 80.5102 993.5 79.2102 985.7 79.2102C977 79.2102 969.6 80.3102 963.6 82.3102C957.6 84.3102 954.6 88.0102 954.6 93.3102C954.6 100.91 959.3 105.61 968.9 107.41C970.788 107.768 972.807 108.149 974.955 108.555C983.615 110.192 994.38 112.226 1007.2 114.71C1037.8 120.51 1058.2 126.91 1068.4 133.81C1078.6 140.81 1083.7 152.81 1083.7 169.91ZM1105.7 35.7102H1172.8V238.21H1105.7V35.7102ZM1289.5 79.2102C1280.8 79.2102 1273.4 80.3102 1267.4 82.3102C1261.4 84.3102 1258.4 88.0102 1258.6 93.2102C1258.6 100.81 1263.3 105.51 1272.9 107.31C1274.79 107.668 1276.81 108.049 1278.95 108.455C1287.61 110.092 1298.38 112.126 1311.2 114.61C1341.8 120.41 1362.2 126.81 1372.4 133.71C1382.6 140.71 1387.7 152.71 1387.7 169.81C1387.7 188.41 1381.5 204.71 1369.2 218.51C1356.9 232.41 1331 239.31 1291.5 239.31C1251.1 239.31 1224.7 232.41 1212.2 218.41C1199.6 204.41 1193.4 187.31 1193.4 167.01H1260.6C1260.6 179.81 1263.6 187.61 1269.6 190.21C1275.6 192.81 1282.8 194.11 1291.1 194.11C1299.3 194.11 1306.5 193.21 1312.5 191.31C1318.5 189.41 1321.5 185.61 1321.5 179.91C1321.5 173.41 1316.9 169.11 1307.7 167.01C1298.5 164.91 1285.8 162.61 1269.6 160.01C1239.8 153.81 1219.6 146.91 1209.2 139.31C1198.7 131.71 1193.5 119.11 1193.5 101.51C1193.5 83.5102 1199.8 67.8102 1212.5 54.2102C1225.2 40.7102 1251.1 33.9102 1290.3 33.9102C1329.3 33.9102 1355.3 41.1102 1368.1 55.5102C1380.9 69.9102 1387.3 86.6102 1387.3 105.71H1320.1C1320.1 93.1102 1316.9 85.5102 1310.6 83.0102C1304.3 80.5102 1297.3 79.2102 1289.5 79.2102ZM1395.4 50.7102C1395.4 52.6102 1396.7 53.7102 1398.2 53.7102C1399.6 53.7102 1400.4 52.8102 1400.6 51.9102L1403.9 52.9102C1403.4 55.0102 1401.4 57.1102 1398.2 57.1102C1394.6 57.1102 1391.7 54.4102 1391.7 50.7102C1391.7 46.9102 1394.5 44.3102 1398 44.3102C1401.4 44.3102 1403.3 46.4102 1403.8 48.5102L1400.5 49.5102C1400.3 48.6102 1399.5 47.7102 1398.1 47.7102C1396.6 47.7102 1395.4 48.8102 1395.4 50.7102ZM1397.9 62.9102C1404.6 62.9102 1410.1 57.4102 1410.1 50.7102C1410.1 43.9102 1404.6 38.4102 1397.9 38.5102C1391.2 38.5102 1385.7 44.0102 1385.7 50.7102C1385.7 57.4102 1391.2 62.9102 1397.9 62.9102ZM1397.9 41.2102C1403.2 41.2102 1407.2 45.4102 1407.2 50.7102C1407.2 56.0102 1403.2 60.2102 1397.9 60.2102C1392.6 60.2102 1388.6 56.0102 1388.6 50.7102C1388.6 45.4102 1392.6 41.2102 1397.9 41.2102ZM430.935 329.3C430.935 343 424.135 351.75 410.435 351.75C396.785 351.75 389.985 343.05 389.985 329.3V305.35C389.985 291.7 396.685 282.95 410.435 282.95C424.235 282.95 430.935 291.8 430.935 305.35V329.3ZM393.835 328.95C393.835 341.3 399.085 348.45 410.435 348.45C422.035 348.45 427.085 341.05 427.085 329.05V305.7C427.085 293.7 421.985 286.25 410.435 286.25C398.985 286.25 393.835 293.7 393.835 305.7V328.95ZM421.285 327.4C421.285 334.7 417.885 338.7 410.435 338.7C403.235 338.7 399.635 334.5 399.635 326.8V308.25C399.635 300.25 403.285 296.1 410.435 296.1C417.935 296.1 421.285 299.8 421.285 307.2V310.6H417.685V307.8C417.685 303.35 417.135 299.3 410.435 299.3C404.185 299.3 403.185 303.7 403.185 308.75V326.1C403.185 331.1 404.085 335.45 410.435 335.45C417.035 335.45 417.685 330.95 417.685 326.65V323.9H421.285V327.4ZM57.9816 344.35C55.5316 349.05 50.5816 351.4 43.1816 351.4C35.6816 351.4 30.6316 348.95 27.9316 344.05C25.2316 339.1 23.8816 330.15 23.8816 317.1C23.8816 304.1 25.2316 295.15 27.8816 290.3C30.5816 285.45 35.6816 283.05 43.1816 283.05C50.5816 283.05 55.5316 285.35 57.9816 289.95C60.4316 294.5 61.6816 301.35 61.6816 310.35H55.5316C55.5316 301.55 54.5316 295.5 52.5816 292.3C50.5816 289.1 47.4316 287.5 43.1816 287.5C38.7816 287.5 35.4816 289.25 33.2816 292.7C31.1316 296.2 30.0316 304.3 30.0316 317.1C30.0316 329.95 31.1316 338.1 33.3316 341.65C35.5316 345.2 38.7816 346.95 43.1816 346.95C47.4316 346.95 50.5816 345.3 52.5816 342C54.5316 338.65 55.5316 332.7 55.5316 324.05H61.6816C61.6816 332.85 60.4316 339.65 57.9816 344.35ZM105.401 344.05C102.401 349 97.1511 351.45 89.6011 351.45C82.0511 351.45 76.8011 349 73.8511 344.05C70.8511 339.15 69.3511 330.25 69.3511 317.25C69.3511 304.3 70.8511 295.4 73.8011 290.45C76.8011 285.5 82.0511 283.05 89.6011 283.05C97.1511 283.05 102.401 285.5 105.401 290.45C108.401 295.4 109.851 304.35 109.851 317.25C109.851 330.25 108.401 339.15 105.401 344.05ZM79.1511 341.4C81.6011 345.15 85.1011 347 89.6011 347C94.1511 347 97.6511 345.15 100.101 341.4C102.551 337.7 103.801 329.65 103.801 317.25C103.801 304.85 102.551 296.75 100.101 293.05C97.6511 289.35 94.1511 287.5 89.6011 287.5C85.1011 287.5 81.6011 289.35 79.1511 293.05C76.6511 296.75 75.4511 304.85 75.4511 317.25C75.4511 329.65 76.6511 337.7 79.1511 341.4ZM116.771 351H122.871V330.9H137.021C142.771 330.9 146.521 328.6 148.221 324C149.921 319.35 150.771 313.75 150.771 307.25C150.771 300.7 149.921 295.1 148.221 290.45C146.521 285.8 142.771 283.5 137.021 283.5H116.771V351ZM122.871 326.45V287.95H135.121C138.871 287.95 141.371 289.7 142.721 293.15C144.071 296.65 144.721 301.35 144.721 307.25C144.721 313.15 144.021 317.85 142.721 321.3C141.371 324.75 138.821 326.45 135.121 326.45H122.871ZM177.436 351H171.386V326.35L154.386 283.5H161.036L174.386 320.05L187.786 283.5H194.386L177.436 326.35V351ZM200.463 351H206.563V320H220.263L228.263 351H234.713L226.363 319.7C229.513 319 231.613 317.35 232.763 314.65C234.313 311.05 235.063 306.8 235.063 301.95C235.063 297 234.313 292.7 232.813 289.05C231.313 285.35 228.063 283.5 223.113 283.5H200.463V351ZM206.563 316V287.95H221.013C224.063 287.95 226.113 289.25 227.263 291.85C228.363 294.5 228.913 297.85 228.913 302C228.913 306.1 228.363 309.5 227.263 312.1C226.113 314.7 224.063 316 221.013 316H206.563ZM250.607 351H244.507V283.5H250.607V351ZM279.012 351.4C287.112 351.4 292.112 348.6 293.962 343L294.262 351H298.112V319.8H280.462V323.9H291.912V332.2C291.862 338.05 290.862 342 288.862 343.95C286.862 345.95 283.812 346.95 279.612 346.95C275.112 346.95 271.862 345.05 269.812 341.3C267.712 337.5 266.712 329.5 266.712 317.25C266.712 304.4 267.712 296.2 269.812 292.7C271.862 289.25 275.162 287.5 279.712 287.5C284.162 287.5 287.312 289.15 289.162 292.55C291.012 295.95 291.962 301.4 292.012 308.95H298.112C298.112 301.05 296.912 294.75 294.412 290.1C291.962 285.4 287.062 283.05 279.712 283.05C272.112 283.05 267.012 285.45 264.412 290.3C261.862 295.1 260.562 304 260.562 317C260.562 329.9 261.862 338.9 264.412 343.9C266.962 348.9 271.812 351.4 279.012 351.4ZM312.715 351H306.615V283.5H312.715V313.3H335.715V283.5H341.815V351H335.715V317.75H312.715V351ZM364.032 351H370.082V287.95H385.182V283.5H348.932V287.95H364.032V351ZM455.582 351H486.482V346.55H461.932C461.932 344.1 462.832 341.15 464.532 337.65C466.282 334.2 469.282 330.25 473.582 325.8C477.582 321.3 480.732 316.85 483.032 312.5C485.382 308.1 486.532 303.15 486.532 297.6C486.532 293.1 485.532 289.55 483.482 286.95C481.432 284.35 477.382 283.05 471.282 283.05C464.882 283.05 460.682 285 458.632 288.95C456.582 292.85 455.532 298.8 455.532 306.8H461.632C461.632 299.05 462.382 293.9 463.982 291.35C465.582 288.8 467.982 287.5 471.282 287.5C474.282 287.5 476.532 288.15 478.082 289.5C479.632 290.85 480.432 293.55 480.432 297.5C480.432 302.4 479.532 306.7 477.782 310.4C475.982 314.15 473.032 318.25 468.832 322.75C464.132 327.3 460.782 331.65 458.682 335.9C456.632 340.1 455.582 343.9 455.582 347.3V351ZM519.491 348.1C516.991 350.4 513.141 351.55 507.941 351.55C502.691 351.55 498.841 350.4 496.341 348.1C493.841 345.8 492.591 342.15 492.591 337.2V297.4C492.591 292.45 493.841 288.8 496.341 286.5C498.841 284.2 502.691 283.05 507.891 283.05C513.141 283.05 516.991 284.2 519.491 286.5C521.941 288.8 523.191 292.45 523.191 297.4V337.2C523.191 342.15 521.991 345.8 519.491 348.1ZM500.841 344.65C502.341 346.3 504.691 347.1 507.941 347.1C511.191 347.1 513.491 346.3 514.941 344.65C516.391 343 517.141 340.35 517.141 336.75V297.85C517.141 294.25 516.391 291.65 514.941 290C513.541 288.35 511.191 287.5 507.891 287.5C504.641 287.5 502.241 288.3 500.841 289.95C499.391 291.6 498.691 294.25 498.691 297.85V336.75C498.691 340.35 499.391 343 500.841 344.65ZM529.605 351H560.505V346.55H535.955C535.955 344.1 536.855 341.15 538.555 337.65C540.305 334.2 543.305 330.25 547.605 325.8C551.605 321.3 554.755 316.85 557.055 312.5C559.405 308.1 560.555 303.15 560.555 297.6C560.555 293.1 559.555 289.55 557.505 286.95C555.455 284.35 551.405 283.05 545.305 283.05C538.905 283.05 534.705 285 532.655 288.95C530.605 292.85 529.555 298.8 529.555 306.8H535.655C535.655 299.05 536.405 293.9 538.005 291.35C539.605 288.8 542.005 287.5 545.305 287.5C548.305 287.5 550.555 288.15 552.105 289.5C553.655 290.85 554.455 293.55 554.455 297.5C554.455 302.4 553.555 306.7 551.805 310.4C550.005 314.15 547.055 318.25 542.855 322.75C538.155 327.3 534.805 331.65 532.705 335.9C530.655 340.1 529.605 343.9 529.605 347.3V351ZM593.514 348.1C591.014 350.4 587.164 351.55 581.964 351.55C576.714 351.55 572.864 350.4 570.364 348.1C567.864 345.8 566.614 342.15 566.614 337.2V297.4C566.614 292.45 567.864 288.8 570.364 286.5C572.864 284.2 576.714 283.05 581.914 283.05C587.164 283.05 591.014 284.2 593.514 286.5C595.964 288.8 597.214 292.45 597.214 297.4V337.2C597.214 342.15 596.014 345.8 593.514 348.1ZM574.864 344.65C576.364 346.3 578.714 347.1 581.964 347.1C585.214 347.1 587.514 346.3 588.964 344.65C590.414 343 591.164 340.35 591.164 336.75V297.85C591.164 294.25 590.414 291.65 588.964 290C587.564 288.35 585.214 287.5 581.914 287.5C578.664 287.5 576.264 288.3 574.864 289.95C573.414 291.6 572.714 294.25 572.714 297.85V336.75C572.714 340.35 573.414 343 574.864 344.65ZM622.631 351H628.681V287.85L653.031 351H663.081V283.5H657.031L656.981 346.3L632.681 283.5H622.631V351ZM702.804 351H671.754V283.5H702.804V287.95H677.854V314.15H701.504V318.45H677.854V346.55H702.804V351ZM710.424 351H716.424V287.95H716.674L731.224 346.35H738.774L753.324 287.95H753.574V351H759.574V283.5H749.424L735.074 341.95H734.924L720.574 283.5H710.424V351ZM799.289 351H768.239V283.5H799.289V287.95H774.339V314.15H797.989V318.45H774.339V346.55H799.289V351ZM824.508 351.5C831.908 351.5 836.758 349.7 839.208 346.05C841.658 342.45 842.858 338.3 842.858 333.7C842.858 327.95 841.658 323.85 839.158 321.45C836.708 319.1 832.408 316.85 826.258 314.75C821.508 313.2 818.008 311.4 815.708 309.35C813.358 307.35 812.208 304.1 812.208 299.65C812.208 296.35 813.208 293.5 815.208 291.1C817.208 288.65 820.308 287.45 824.508 287.45C828.658 287.45 831.758 288.8 833.758 291.45C835.758 294.1 836.758 299.9 836.758 308.9H842.858C842.858 299.6 841.658 292.95 839.258 289C836.858 285 831.958 283.05 824.558 283.05C817.308 283.05 812.458 284.85 809.958 288.45C807.508 292.05 806.258 296.05 806.258 300.45C806.258 305.9 807.458 309.9 809.908 312.45C812.358 314.95 816.658 317.2 822.708 319.25C827.458 320.8 831.008 322.6 833.358 324.55C835.658 326.55 836.808 329.9 836.808 334.6C836.808 338.2 835.808 341.15 833.858 343.55C831.858 345.9 828.758 347.05 824.508 347.05C820.258 347.05 817.158 345.75 815.208 343.1C813.258 340.5 812.308 334.5 812.308 325.2H806.208C806.208 335.05 807.358 341.9 809.758 345.7C812.108 349.55 817.058 351.5 824.508 351.5ZM858.615 351H852.515V283.5H858.615V351ZM886.52 351.5C893.92 351.5 898.77 349.7 901.22 346.05C903.67 342.45 904.87 338.3 904.87 333.7C904.87 327.95 903.67 323.85 901.17 321.45C898.72 319.1 894.42 316.85 888.27 314.75C883.52 313.2 880.02 311.4 877.72 309.35C875.37 307.35 874.22 304.1 874.22 299.65C874.22 296.35 875.22 293.5 877.22 291.1C879.22 288.65 882.32 287.45 886.52 287.45C890.67 287.45 893.77 288.8 895.77 291.45C897.77 294.1 898.77 299.9 898.77 308.9H904.87C904.87 299.6 903.67 292.95 901.27 289C898.87 285 893.97 283.05 886.57 283.05C879.32 283.05 874.47 284.85 871.97 288.45C869.52 292.05 868.27 296.05 868.27 300.45C868.27 305.9 869.47 309.9 871.92 312.45C874.37 314.95 878.67 317.2 884.72 319.25C889.47 320.8 893.02 322.6 895.37 324.55C897.67 326.55 898.82 329.9 898.82 334.6C898.82 338.2 897.82 341.15 895.87 343.55C893.87 345.9 890.77 347.05 886.52 347.05C882.27 347.05 879.17 345.75 877.22 343.1C875.27 340.5 874.32 334.5 874.32 325.2H868.22C868.22 335.05 869.37 341.9 871.77 345.7C874.12 349.55 879.07 351.5 886.52 351.5ZM964.329 344.35C961.879 349.05 956.929 351.4 949.529 351.4C942.029 351.4 936.979 348.95 934.279 344.05C931.579 339.1 930.229 330.15 930.229 317.1C930.229 304.1 931.579 295.15 934.229 290.3C936.929 285.45 942.029 283.05 949.529 283.05C956.929 283.05 961.879 285.35 964.329 289.95C966.779 294.5 968.029 301.35 968.029 310.35H961.879C961.879 301.55 960.879 295.5 958.929 292.3C956.929 289.1 953.779 287.5 949.529 287.5C945.129 287.5 941.829 289.25 939.629 292.7C937.479 296.2 936.379 304.3 936.379 317.1C936.379 329.95 937.479 338.1 939.679 341.65C941.879 345.2 945.129 346.95 949.529 346.95C953.779 346.95 956.929 345.3 958.929 342C960.879 338.65 961.879 332.7 961.879 324.05H968.029C968.029 332.85 966.779 339.65 964.329 344.35ZM995.949 351.45C1003.5 351.45 1008.75 349 1011.75 344.05C1014.75 339.15 1016.2 330.25 1016.2 317.25C1016.2 304.35 1014.75 295.4 1011.75 290.45C1008.75 285.5 1003.5 283.05 995.949 283.05C988.399 283.05 983.149 285.5 980.149 290.45C977.199 295.4 975.699 304.3 975.699 317.25C975.699 330.25 977.199 339.15 980.199 344.05C983.149 349 988.399 351.45 995.949 351.45ZM995.949 347C991.449 347 987.949 345.15 985.499 341.4C982.999 337.7 981.799 329.65 981.799 317.25C981.799 304.85 982.999 296.75 985.499 293.05C987.949 289.35 991.449 287.5 995.949 287.5C1000.5 287.5 1004 289.35 1006.45 293.05C1008.9 296.75 1010.15 304.85 1010.15 317.25C1010.15 329.65 1008.9 337.7 1006.45 341.4C1004 345.15 1000.5 347 995.949 347ZM1029.22 351H1023.12V283.5H1045.77C1050.72 283.5 1053.97 285.35 1055.47 289.05C1056.97 292.7 1057.72 297 1057.72 301.95C1057.72 306.8 1056.97 311.05 1055.42 314.65C1054.27 317.35 1052.17 319 1049.02 319.7L1057.37 351H1050.92L1042.92 320H1029.22V351ZM1029.22 287.95V316H1043.67C1046.72 316 1048.77 314.7 1049.92 312.1C1051.02 309.5 1051.57 306.1 1051.57 302C1051.57 297.85 1051.02 294.5 1049.92 291.85C1048.77 289.25 1046.72 287.95 1043.67 287.95H1029.22ZM1065.01 351H1071.11V330.9H1085.26C1091.01 330.9 1094.76 328.6 1096.46 324C1098.16 319.35 1099.01 313.75 1099.01 307.25C1099.01 300.7 1098.16 295.1 1096.46 290.45C1094.76 285.8 1091.01 283.5 1085.26 283.5H1065.01V351ZM1071.11 287.95H1083.36C1087.11 287.95 1089.61 289.7 1090.96 293.15C1092.31 296.65 1092.96 301.35 1092.96 307.25C1092.96 313.15 1092.26 317.85 1090.96 321.3C1089.61 324.75 1087.06 326.45 1083.36 326.45H1071.11V287.95ZM1141.92 344.05C1138.92 349 1133.67 351.45 1126.12 351.45C1118.57 351.45 1113.32 349 1110.37 344.05C1107.37 339.15 1105.87 330.25 1105.87 317.25C1105.87 304.3 1107.37 295.4 1110.32 290.45C1113.32 285.5 1118.57 283.05 1126.12 283.05C1133.67 283.05 1138.92 285.5 1141.92 290.45C1144.92 295.4 1146.37 304.35 1146.37 317.25C1146.37 330.25 1144.92 339.15 1141.92 344.05ZM1115.67 341.4C1118.12 345.15 1121.62 347 1126.12 347C1130.67 347 1134.17 345.15 1136.62 341.4C1139.07 337.7 1140.32 329.65 1140.32 317.25C1140.32 304.85 1139.07 296.75 1136.62 293.05C1134.17 289.35 1130.67 287.5 1126.12 287.5C1121.62 287.5 1118.12 289.35 1115.67 293.05C1113.17 296.75 1111.97 304.85 1111.97 317.25C1111.97 329.65 1113.17 337.7 1115.67 341.4ZM1153.29 351H1159.39V320H1173.09L1181.09 351H1187.54L1179.19 319.7C1182.34 319 1184.44 317.35 1185.59 314.65C1187.15 311.05 1187.89 306.8 1187.89 301.95C1187.89 297 1187.14 292.7 1185.64 289.05C1184.14 285.35 1180.89 283.5 1175.94 283.5H1153.29V351ZM1159.39 316V287.95H1173.84C1176.9 287.95 1178.94 289.25 1180.09 291.85C1181.19 294.5 1181.74 297.85 1181.74 302C1181.74 306.1 1181.19 309.5 1180.09 312.1C1178.94 314.7 1176.9 316 1173.84 316H1159.39ZM1199.57 351H1193.27L1209.32 283.4H1218.97L1235.02 351H1228.77L1224.17 330.9H1204.17L1199.57 351ZM1214.02 287.4L1204.97 326.55H1223.37L1214.37 287.4H1214.02ZM1248.02 351H1254.07V287.95H1269.17V283.5H1232.92V287.95H1248.02V351ZM1283.42 351H1277.32V283.5H1283.42V351ZM1313.62 351.45C1321.17 351.45 1326.42 349 1329.42 344.05C1332.42 339.15 1333.87 330.25 1333.87 317.25C1333.87 304.35 1332.42 295.4 1329.42 290.45C1326.42 285.5 1321.17 283.05 1313.62 283.05C1306.07 283.05 1300.82 285.5 1297.82 290.45C1294.87 295.4 1293.37 304.3 1293.37 317.25C1293.37 330.25 1294.87 339.15 1297.87 344.05C1300.82 349 1306.07 351.45 1313.62 351.45ZM1313.62 347C1309.12 347 1305.62 345.15 1303.17 341.4C1300.67 337.7 1299.47 329.65 1299.47 317.25C1299.47 304.85 1300.67 296.75 1303.17 293.05C1305.62 289.35 1309.12 287.5 1313.62 287.5C1318.17 287.5 1321.67 289.35 1324.12 293.05C1326.57 296.75 1327.82 304.85 1327.82 317.25C1327.82 329.65 1326.57 337.7 1324.12 341.4C1321.67 345.15 1318.17 347 1313.62 347ZM1346.84 351H1340.79V283.5H1350.84L1375.14 346.3L1375.19 283.5H1381.24V351H1371.19L1346.84 287.85V351Z" fill="white"/>
</svg>
