<?xml version="1.0" encoding="utf-8"?>
<!-- Generator: Adobe Illustrator 22.1.0, SVG Export Plug-In . SVG Version: 6.00 Build 0)  -->
<svg version="1.1" id="Layer_1" xmlns="http://www.w3.org/2000/svg" xmlns:xlink="http://www.w3.org/1999/xlink" x="0px" y="0px"
	 viewBox="0 0 227.7 141" style="enable-background:new 0 0 227.7 141;" xml:space="preserve">
<style type="text/css">
	.st0{fill:#13A538;}
</style>
<path class="st0" d="M218.6,79.2c-4.6-9.3-11.8-15.7-21.4-19.1c-9.8-3.4-19.5-3-28.8,1.4c-10,4.7-16.9,12.4-20.3,22.7
	c-3.1,9.5-2.5,19,1.9,28.2c4.6,9.7,12.2,16.3,22.5,19.9c3.7,1.3,7.6,1.9,11.6,1.9c2.9,0,5.9-0.4,9-1.1c6.8-1.6,12.9-4.9,18.1-9.9
	c4.7-4.5,7.9-9.9,10.1-17.1l0,0C223.8,97.5,222.9,87.9,218.6,79.2z M178.3,125.2c-1-0.2-2-0.4-3-0.5c-0.9-0.4-1.8-0.8-2.7-1.2
	c-1.6-0.7-3.1-1.3-4.5-2.3c-3.4-2.4-6-4.9-8-7.6c-1.3-1.8-2.5-3.9-3.3-6c-1.4-3.5-2.2-7.1-2.3-11c-0.1-3.2,0.5-6.5,1.7-10.2
	c2.6-7.8,7.6-13.5,15.4-17.3c7.1-3.5,14.6-4,22.2-1.4c7.8,2.6,13.6,7.7,17.3,15c3.4,6.8,4.1,14.2,2,21.9c-1.1,3.4-2.6,6.3-4.8,9.4
	c-1.6,2.2-3.6,4.2-6.2,6.1c-2,1.5-4.3,2.7-7.1,3.9c-3.3,1.3-7,2-11.1,2c0,0,0,0,0,0C182,126,180.2,125.6,178.3,125.2z M185.6,105.2
	c-0.8,0.7-1.6,1.4-2.4,2.2c-0.7,0.7-1.5,1.3-2.2,2c-0.8,0.7-1.8,1.4-3.1,1.4c-0.4,0-0.7-0.1-1.1-0.2l-0.2-0.1
	c-0.1-0.1-0.3-0.2-0.4-0.3c-0.3-0.2-0.7-0.5-1-0.8c-2.2-2.5-4.5-5-6.7-7.6l-2.5-2.8c-0.4-0.5-0.8-0.9-1.2-1.4
	c-1-1.1-1.2-3.1-0.5-4.2c1.1-1.8,3-2.1,4.3-1.8c0.8,0.2,1.4,0.8,1.7,1.1c1.8,2,3.5,4,5.3,6l2.1,2.5c0.1,0.1,0.3,0.3,0.4,0.4
	c0.2,0.1,0.3,0.3,0.4,0.4c0.1-0.1,0.2-0.2,0.3-0.2c1.7-1.5,3.3-2.9,5-4.4l7.8-6.9c2-1.7,3.9-3.5,5.9-5.2c1.1-0.9,2.1-1.8,3.3-2.6
	c1.3-0.9,3.4-0.3,4.4,0.9c1.2,1.4,1.1,3.3-0.1,4.5c-0.8,0.8-1.7,1.7-2.7,2.6c-1.9,1.7-3.8,3.4-5.8,5.1l-5,4.4
	C189.4,101.8,187.5,103.5,185.6,105.2z"/>
<g>
	<path d="M162.9,30.3c-1,0.7-1.9,1.4-2.8,2.2l-1,0.8c-1.2,1-2.5,1.9-3.7,2.9c-1.5,1.2-3,2.4-4.5,3.5l-2.1,1.7
		c-0.9,0.7-1.8,1.4-2.7,2.2c-1.4,1.1-2.9,2.3-4.3,3.4l-2.1,1.7c-0.7,0.6-1.4,1.1-2.2,1.7c-0.8,0.6-1.6,1.3-2.4,1.9l-2.3,1.8
		c-1,0.8-2,1.6-3,2.4l-6.4,5c-0.8,0.6-1.5,1.2-2.3,1.8l-2.1,1.7c-0.9,0.7-1.7,1.4-2.6,2.1c-1.1,0.9-2.2,1.7-3.4,2.6
		c-0.1,0-0.1,0.1-0.1,0.1c0,0-0.1,0-0.1-0.1c-0.3-0.2-0.6-0.5-0.8-0.7c-0.4-0.4-0.9-0.8-1.4-1.1c-1-0.8-2.1-1.6-3.1-2.4
		c-1.4-1.1-2.8-2.1-4.2-3.2c-1.4-1.1-2.7-2.2-4-3.2c-1.2-1-2.4-2-3.6-2.9c-1.1-0.8-2.1-1.6-3.2-2.5c-1-0.8-2-1.5-3-2.3
		c-1-0.8-2.1-1.7-3.1-2.5c-1-0.9-2.1-1.7-3.1-2.5c-1-0.8-2.1-1.6-3.1-2.4c-1-0.8-2.1-1.6-3.1-2.4c-1-0.8-2-1.6-3-2.4
		c-1.1-0.9-2.1-1.7-3.2-2.6c-1.2-1-2.4-1.9-3.7-2.8c-1.3-1-2.5-1.9-3.8-2.9c-1.8-1.4-3.4-1.1-4.4-0.6c-1.3,0.6-2.3,1.8-2.5,3.2
		c-0.2,1.2,0.2,2.5,1.1,3.4c0.6,0.6,1.2,1.1,1.8,1.6c1.6,1.3,3.1,2.5,4.7,3.8c1,0.8,1.9,1.5,2.9,2.2l19.3,15.2
		c1.2,0.9,2.4,1.9,3.6,2.8c1.2,0.9,2.3,1.9,3.5,2.8l1.6,1.3l0,0c-1,0.6-2,1.2-3,1.8c-1.1,0.6-2.2,1.3-3.4,1.9l-3.1,1.7
		c-1.6,0.9-3.1,1.8-4.6,2.7l-5.7,3.3c-1.5,0.9-3,1.7-4.4,2.5l-2,1.1c-1,0.5-1.9,1.1-2.9,1.6c-0.8,0.4-1.5,0.9-2.3,1.3
		c-1.5,0.9-3,1.8-4.6,2.6c-1.1,0.6-1.9,1.5-2.3,2.9c-0.3,1.1,0,2.5,0.9,3.6c0.7,0.9,1.8,1.4,2.8,1.4c0.1,0,0.1,0,0.2,0
		c1.3-0.1,2.4-0.4,3.4-1c2.2-1.3,4.3-2.6,6.5-3.8c0.9-0.5,1.7-1,2.6-1.5c0.8-0.4,1.6-0.9,2.4-1.3c0.9-0.5,1.7-1,2.5-1.5l12-6.9
		c0.7-0.4,1.5-0.9,2.3-1.3c0.7-0.4,1.5-0.8,2.4-1.4c2.3-1.3,4.6-2.6,6.8-4c0.6-0.3,0.8-0.4,0.8-0.4c0,0-0.1-0.2,0.2,0.3l2.8,2.3
		c1.7,1.3,3.4,2.6,5.1,3.9c1.8,1.4,3.8,1.4,5.5,0l2.7-2.1c1.8-1.4,3.6-2.8,5.5-4.3c0.2,0.1,0.4,0.2,0.6,0.3c0.1,0,0.2,0.1,0.3,0.1
		l4.9,2.9c1.1,0.6,3.4,1.9,5.5,3.1c1.6,0.9,3.2,1.8,4,2.2c0.3,0.2,0.6,0.3,1,0.4l1,0.4l3.4-7.4l-1.4-0.9c-0.4-0.2-0.7-0.5-1.1-0.7
		c-1-0.6-2.8-1.5-4.6-2.5c-2.4-1.3-5-2.7-6.3-3.5c0,0,0,0-0.1,0c0,0,0,0,0,0c0.1-0.1,0.2-0.2,0.3-0.2l34.2-27
		c0.9-0.7,1.9-1.5,2.7-2.3c1.7-1.6,1.8-3.8,0.2-5.7C167,29.3,164.7,29,162.9,30.3z"/>
	<path d="M192.4,47.9l0-35.2c0-2.3-1.2-3.9-3.5-4.5C188.3,8,187.5,8,186.9,8L39.3,8L39,8c-0.3,0-0.6,0-0.9,0
		c-1.3,0.1-2.3,0.6-3.1,1.4c-1.2,1.2-1.4,2.6-1.4,3.8c0,25.7,0,58.4,0,86.2l0,13.9c0,0.1,0,0.2,0,0.3c-0.1,1.4,0.6,2.4,1.2,3
		c1.2,1.2,2.6,1.2,3.7,1.2l99.2,0l0.3,0c0.3,0,0.6,0,0.9,0c0.3,0,1-0.1,1.5-0.7c0.4-0.6,0.2-1.4,0.1-1.7c-0.1-0.5-0.3-0.9-0.4-1.4
		c-0.3-0.8-0.5-1.6-0.7-2.4l-0.2-0.7c-0.5-1.9-0.9-2.3-2.9-2.3l-0.7,0l-92.1,0l-0.7,0l0-0.7c0-26.9,0-63.3,0-90.2l0-0.6l0.6,0
		l34.8,0l104.7,0l0.4,0l0,0.5l0,30.3c0,1,0.7,1.7,1.7,1.8c1.4,0.1,2.9,0.2,4.3,0.3c0.3,0,0.5,0.1,0.8,0.1c0.6,0.1,1.2,0.3,1.8-0.1
		c0.6-0.4,0.6-1.1,0.6-1.6C192.4,48.3,192.4,48.2,192.4,47.9z"/>
</g>
</svg>
