<?xml version="1.0" encoding="utf-8"?>
<!-- Generator: Adobe Illustrator 22.1.0, SVG Export Plug-In . SVG Version: 6.00 Build 0)  -->
<svg version="1.1" id="Layer_1" xmlns="http://www.w3.org/2000/svg" xmlns:xlink="http://www.w3.org/1999/xlink" x="0px" y="0px"
	 viewBox="0 0 171 168" style="enable-background:new 0 0 171 168;" xml:space="preserve">
<style type="text/css">
	.st0{fill:#FFFFFF;}
</style>
<path id="HVCuOY.tif" class="st0" d="M161,132.4c-18,10.4-36,20.8-54,31.2c-2.1,1.2-2.4,1.1-3.7-1c-2.8-4.4-5.5-8.8-8.3-13.1
	c-2.8-4.3-6.5-7.5-11.1-10C71.4,132.8,59,126,46.5,119.3c-3-1.6-5.9-3.4-8.1-6c-2.2-2.6-3.6-5.4-3-9c0.7-4.6,4-7.8,8.7-8.3
	c4-0.5,7.9,0.2,11.7,1.4c2.9,0.9,5.9,1.8,9.3,2.8c-0.6-1.2-1-2-1.5-2.8C53.2,79.4,42.8,61.3,32.3,43.2c-1.7-2.9-2.5-5.8-1.5-9.1
	c1.4-4.5,4.5-7.2,9.1-7.8c4.3-0.5,7.9,1.1,10.2,4.8c2.8,4.5,5.4,9.2,8.1,13.9c1.8,3.1,3.6,6.3,5.6,9.7c0.4-0.9,0.6-1.5,0.9-2.1
	c2.5-7.1,10.7-9.6,16.7-5.1c0.6,0.4,1.2,0.9,1.8,1.4c3.1-10.5,14.1-12.3,20.6-4.3c0.3-0.8,0.6-1.5,0.8-2.1c1.6-4.3,4.9-6.5,9.2-6.9
	c4.2-0.4,7.6,1.4,9.9,5c2.5,4,4.8,8.2,7.2,12.3c2.9,5,5.8,10,8.7,15c6,10.5,9.9,21.8,12.6,33.5c0.9,4.1,1.6,8.3,2.7,12.4
	c1.2,4.2,2.7,8.4,4.2,12.5c0.5,1.5,1.3,2.9,2,4.4C161,131.3,161,131.8,161,132.4z M27.9,7.3C8,14.6-0.5,37.6,9.8,56.1
	C13.9,63.6,20,68.8,28,71.8c2.5,0.9,4.9-0.1,5.9-2.3c1-2.3-0.1-4.9-2.4-6.1c-0.6-0.3-1.3-0.5-1.9-0.8c-9.2-4.4-14.5-11.7-15-21.9
	c-0.8-14.5,10.3-25.5,23.2-26.6c10.8-0.8,21.4,5.4,25.5,15.8c0.6,1.6,1,3.3,1.5,5c0.8,2.7,3,4.1,5.5,3.5c2.5-0.6,3.9-2.7,3.4-5.5
	c-0.3-1.6-0.8-3.2-1.3-4.7C67,12.2,50.2,2.4,33.8,5.5C31.8,6.1,29.8,6.5,27.9,7.3z"/>
</svg>
