<?xml version="1.0" encoding="utf-8"?>
<!-- Generator: Adobe Illustrator 22.1.0, SVG Export Plug-In . SVG Version: 6.00 Build 0)  -->
<svg version="1.1" id="Layer_1" xmlns="http://www.w3.org/2000/svg" xmlns:xlink="http://www.w3.org/1999/xlink" x="0px" y="0px"
	 viewBox="0 0 26.2 25.3" style="enable-background:new 0 0 26.2 25.3;" xml:space="preserve">
<g id="bVXR6U.tif">
	<g>
		<g>
			<path d="M4.3,24.5c-0.2,0-0.4-0.1-0.5-0.1c-0.9-0.2-1.7-0.8-2.2-1.6C1.2,22.2,1,21.6,1,20.9c0-1.5,0-2.9,0-4.4
				c0-0.7,0.6-1.4,1.4-1.3c0.6,0.1,1.1,0.5,1.2,1.2c0,0.3,0,0.6,0,0.9c0,1.1,0,2.3,0,3.4c0,0.5,0.3,0.9,0.8,1.1c0.1,0,0.2,0,0.2,0
				c0.1,0,0.2,0,0.2,0c5.5,0,11,0,16.5,0c0.2,0,0.4,0,0.7-0.1c0.4-0.2,0.7-0.6,0.7-1c0-1.4,0-2.8,0-4.1c0-0.3,0-0.5,0.2-0.8
				c0.3-0.5,0.8-0.7,1.3-0.6c0.5,0.1,1,0.4,1,1c0,0,0,0.1,0.1,0.1c0,1.5,0,3.1,0,4.6c0,0.1,0,0.1-0.1,0.2c0,0.5-0.2,0.9-0.4,1.3
				c-0.2,0.4-0.5,0.8-0.9,1.1c-0.5,0.4-1.2,0.7-1.9,0.8c0,0-0.1,0-0.1,0.1C16,24.5,10.2,24.5,4.3,24.5z"/>
			<path d="M13.4,1C13.5,1,13.5,1,13.4,1c0.3,0.1,0.5,0.3,0.6,0.4c0.4,0.4,0.9,0.9,1.3,1.3c1.5,1.5,3,3,4.4,4.4
				c0.1,0.1,0.3,0.3,0.3,0.4c0.3,0.5,0.1,1.2-0.3,1.6c-0.4,0.4-1.1,0.4-1.6,0.1C18.2,9.2,18.1,9.1,18,9c-1.1-1.1-2.2-2.2-3.3-3.3
				c-0.1-0.1-0.2-0.2-0.3-0.3c0,0.2,0,0.3,0,0.4c0,3.4,0,6.7,0,10.1c0,0.3,0,0.5-0.2,0.8c-0.3,0.5-0.8,0.7-1.3,0.6
				c-0.5-0.1-0.9-0.4-1-1c0-0.1,0-0.3,0-0.5c0-1.5,0-3,0-4.5c0-1.8,0-3.7,0-5.5c0-0.1,0-0.2,0-0.3c-0.1,0-0.2,0.1-0.3,0.2
				C10.5,6.8,9.4,7.9,8.2,9C7.9,9.3,7.6,9.5,7.2,9.5c-0.5,0-0.9-0.3-1.1-0.8C5.9,8.2,6,7.7,6.3,7.4c0.1-0.1,0.2-0.2,0.3-0.3
				c1.8-1.8,3.5-3.5,5.3-5.3c0.3-0.3,0.6-0.6,1-0.8C13,1,13.2,1,13.4,1z"/>
		</g>
	</g>
</g>
</svg>
